<svg xmlns="http://www.w3.org/2000/svg" width="756" viewBox="0 0 567 567" height="756" version="1.0">
  <defs>
    <clipPath id="b">
      <path d="M1 .43h437.21v437.28H1Zm0 0"/>
    </clipPath>
    <clipPath id="c">
      <path d="M186.676 400.344c-5.457 4.582-11.73 6.601-18.27 8-2.648.566-5.304 1.07-7.937 1.719a43 43 0 0 0-4.989 1.578c-4.968 1.902-8.546 5.332-10.824 10.132-.336.711-.672 1.418-1.097 2.32-.551-.167-1.09-.327-1.825-.546.23-.887.426-1.703.653-2.516 1.5-5.308 1.011-10.437-1.762-15.195-1.664-2.86-3.695-5.512-5.582-8.238-2.035-2.95-4.18-5.82-6.129-8.825-2.16-3.332-3.36-7.078-4.226-11.011-2.692.285-5.27.613-7.856.804-7.46.579-14.832-.273-22.203-1.316-6.05-.86-12.11-1.773-18.195-2.29-5.602-.468-10.996.497-15.61 4.298-.515-.45-.949-.84-1.347-1.188.043-.265.007-.457.097-.566 3.668-4.598 4.57-9.992 4.067-15.59-.602-6.61-1.559-13.184-2.508-19.746-1.293-8.95-2-17.887-.38-26.871.06-.336.009-.684.009-1.203-.434-.18-.88-.438-1.356-.543-4.617-.973-8.726-3.047-12.554-5.715-2.649-1.852-5.184-3.871-7.813-5.746-1.992-1.418-3.988-2.856-6.113-4.05-5.051-2.86-10.41-3.356-15.946-1.614-1.187.375-2.277.703-2.367-1.32.543-.29 1.117-.645 1.719-.918 5.406-2.422 9.145-6.391 10.969-12.024.937-2.898 1.746-5.863 2.328-8.851 1.488-7.59 3.332-15.024 8.375-21.094-.172-.309-.207-.512-.328-.582-5.281-3.059-9.188-7.489-12.457-12.528-1.524-2.347-2.961-4.75-4.52-7.07-1.113-1.664-2.3-3.305-3.594-4.836-3.171-3.738-7.167-6.07-12.078-6.762-1.28-.175-2.578-.336-3.968-.52v-1.816c1.312-.16 2.515-.285 3.714-.445 5.29-.715 9.582-3.222 12.817-7.414 1.922-2.488 3.598-5.156 5.37-7.762 1.673-2.453 3.259-4.968 5.024-7.359 2.664-3.633 6.004-6.566 9.868-8.781 0-.266.07-.489-.008-.586-4.66-5.863-6.582-12.817-8.035-19.977-.622-3.074-1.305-6.156-2.227-9.16-1.84-6.016-5.668-10.355-11.496-12.851a23 23 0 0 1-1.18-.56c-.07-.034-.113-.124-.176-.194.329-1.88.352-1.957 1.993-1.453 3.933 1.203 7.91 1.601 11.843.246 2.207-.762 4.344-1.832 6.372-3.012 1.878-1.09 3.62-2.445 5.351-3.781 6.172-4.786 12.41-9.418 20.535-10.836-.25-2.48-.426-4.809-.726-7.121-.72-5.52-.223-11.004.425-16.47.946-7.972 2.18-15.921 3.047-23.901.637-5.883-.25-11.516-4.437-16.665.469-.453.93-.902 1.46-1.418 6.016 4.829 12.684 5.016 19.489 4.227 5.902-.684 11.766-1.605 17.648-2.453 8.868-1.277 17.735-1.676 26.735 0 .18-.426.402-.79.488-1.188 1.223-5.68 4.004-10.586 7.414-15.195 2.492-3.375 5.059-6.707 7.371-10.195 2.688-4.051 3.989-8.551 3.317-13.457-.258-1.887-.801-3.739-1.25-5.77.496-.219 1.027-.449 1.613-.707.238.363.477.621.602.938 2.718 6.894 7.867 10.96 14.933 12.73 3.305.824 6.629 1.563 9.961 2.27 6.379 1.363 12.453 3.41 17.477 7.629.32-.188.53-.23.601-.364 3.04-5.175 7.356-9.062 12.332-12.289 2.422-1.566 4.91-3.039 7.285-4.676 1.938-1.34 3.871-2.73 5.606-4.308 3.633-3.313 5.68-7.477 6.086-12.41.07-.867.187-1.727.293-2.594.008-.082.09-.145.222-.348h1.621c.106.336.247.578.247.825.109 7.761 3.836 13.449 10.117 17.656a228 228 0 0 0 7.054 4.543c5.704 3.547 10.86 7.664 14.317 13.574.078.14.266.223.512.434 4.332-3.473 9.312-5.723 14.742-6.965 2.976-.68 5.98-1.258 8.949-1.992 2.453-.61 4.914-1.25 7.281-2.125 4.89-1.817 8.45-5.157 10.727-9.86.418-.851.832-1.703 1.293-2.648.578.21 1.054.386 1.719.629-.196.84-.344 1.672-.594 2.48-1.621 5.313-.946 10.383 1.703 15.184 1.133 2.054 2.496 3.996 3.863 5.925 1.356 1.93 2.844 3.766 4.258 5.66 3.695 4.946 6.68 10.235 7.824 16.579 2.258-.285 4.395-.621 6.54-.809 9.042-.77 17.964.39 26.878 1.774 4.57.707 9.168 1.308 13.774 1.726 5.972.531 11.703-.203 16.71-4.234.532.504 1.008.949 1.524 1.445-3.437 4.172-4.406 8.953-4.379 14.074.027 5.883 1.09 11.653 1.969 17.426 1.25 8.223 2.336 16.445 1.707 24.79-.184 2.425-.555 4.835-.867 7.44.347.141.71.372 1.11.454 4.976 1.015 9.39 3.27 13.472 6.191 3.34 2.39 6.574 4.934 9.922 7.309 3.535 2.5 7.343 4.472 11.793 4.617 1.894.058 3.816-.207 5.703-.453 1.199-.16 2.367-.551 3.703-.88.222.614.418 1.145.613 1.669-.308.238-.488.449-.719.539-6.777 2.668-10.922 7.637-12.746 14.61-.71 2.702-1.367 5.421-1.914 8.16-1.41 7.078-3.305 13.953-8.187 19.745.336.31.53.575.797.735 4.765 2.836 8.418 6.797 11.445 11.36 1.695 2.55 3.305 5.152 4.98 7.714a55 55 0 0 0 2.41 3.438c4.555 5.945 8.79 8.14 17.231 8.886.043.582.09 1.203.14 1.903-1.222.152-2.25.285-3.277.41-5.5.652-9.965 3.23-13.277 7.597-2.324 3.06-4.379 6.317-6.477 9.543-2.773 4.27-5.707 8.399-9.773 11.563-1.3 1.008-2.676 1.91-3.969 2.824.008.203-.015.32.027.371 5.086 6.477 6.918 14.184 8.454 22.035a61 61 0 0 0 2.25 8.336c1.972 5.696 5.968 9.551 11.472 11.899.309.133.617.265 1.07.457-.132.605-.245 1.152-.363 1.703-.398.027-.664.105-.902.055-1.445-.34-2.871-.79-4.332-1.04-4.68-.777-9.09.141-13.086 2.606-2.898 1.781-5.574 3.906-8.398 5.813-3.543 2.382-7.024 4.906-10.766 6.96-2.559 1.41-5.5 2.11-8.422 3.192.156 1.09.336 2.285.496 3.48 1.14 8.399.344 16.735-.789 25.07-.906 6.665-1.844 13.325-2.43 20.012-.468 5.442.606 10.633 4.247 14.957-.215.317-.329.559-.516.743-.238.25-.524.445-.902.753-5.793-4.64-12.543-4.863-19.446-4.023-6.504.797-12.969 1.906-19.472 2.723-8.266 1.027-16.551 1.3-24.922-.34-.38 1.43-.707 2.765-1.106 4.086-1.437 4.66-3.969 8.734-6.84 12.613-1.921 2.606-3.96 5.121-5.777 7.797-1.266 1.871-2.418 3.863-3.34 5.926-1.805 4.05-2.02 8.277-.824 12.554.258.914.496 1.825.797 2.926a195 195 0 0 0-1.805.63c-.312-.63-.601-1.165-.844-1.712-2.507-5.707-6.73-9.543-12.675-11.332-3.508-1.055-7.098-1.844-10.684-2.594-6.644-1.41-13.043-3.34-18.453-7.683-.117-.098-.32-.086-.676-.184-2.957 5.367-7.43 9.336-12.55 12.668-1.977 1.285-4.016 2.488-5.965 3.817-2.02 1.375-4.055 2.757-5.926 4.316-4.383 3.648-6.77 8.371-7.121 14.086-.036.601-.106 1.195-.16 1.781-.348.133-.575.281-.817.301-.328.027-.672-.035-1.133-.07-.113-.825-.285-1.578-.328-2.34-.344-5.863-2.969-10.57-7.512-14.14-2.675-2.098-5.597-3.872-8.406-5.802-2.515-1.738-5.105-3.386-7.523-5.246-3.293-2.605-5.934-5.75-8.211-9.726m33.097-247.176c-35.57-.063-65.523 28.187-66.011 64.996-.477 36.305 28.332 66.719 65.894 66.656 37.696-.062 65.692-30.52 65.77-65.75.082-36.199-29.43-65.804-65.653-65.902m49.204 115.414c0 1.004.05 1.95-.008 2.89-.285 4.258-.348 8.567-.957 12.782-1.606 10.996-6.582 20.2-15.371 27.137-2.871 2.265-5.946 4.296-8.985 6.351-3.613 2.453-7.433 4.625-10.879 7.29a40.3 40.3 0 0 0-7.058 6.956c-3.617 4.598-4.965 10.047-4.989 15.973.56.062.895.14 1.223.133 5.774-.215 11.508-.867 17.098-2.348 26.258-6.918 44.984-22.777 56.12-47.547.806-1.789 1.97-2.914 3.759-3.66a63 63 0 0 0 6.367-3.062c23.531-13.168 37.598-33.09 42.328-59.598.684-3.816.8-7.742 1.188-11.774-7.528.16-14.032 2.172-19.083 7.407-2.835 2.933-5.242 6.308-7.609 9.648-2.523 3.563-4.71 7.352-7.148 10.985-7.957 11.855-19.102 18.417-33.293 19.73-4.075.379-8.176.469-12.703.707m-50.579 79.52c-.05-7.442-2.097-13.836-7.246-18.836-2.984-2.895-6.43-5.36-9.843-7.778-3.704-2.629-7.653-4.89-11.391-7.468-7.754-5.348-13.625-12.243-16.7-21.27-1.898-5.57-2.89-11.32-2.898-17.23v-7.157c-1.648 0-2.949.078-4.242-.02-4.262-.32-8.558-.425-12.766-1.097-10.109-1.613-18.71-6.203-25.238-14.176-2.926-3.57-5.433-7.484-8.074-11.285-2.434-3.52-4.656-7.195-7.219-10.613-3.43-4.57-7.785-8.008-13.36-9.684-2.816-.84-5.679-1.445-8.776-1.285-.266 4.738.289 9.258 1.21 13.672 5.926 28.398 22.036 48.73 48.524 60.719 1.691.761 2.797 1.808 3.57 3.515 11.57 25.727 31.156 41.77 58.594 48.196 5.102 1.203 10.312 1.742 15.855 1.797m130.434-130.247c-.398-4.046-.496-7.902-1.187-11.648-5.29-28.969-21.2-49.852-47.91-62.36-2.348-1.097-3.837-2.515-4.97-4.89-14.37-30.2-38.406-46.36-71.644-49.016-.742-.062-1.508.07-2.375.121.063 8.56 3.11 15.567 9.535 20.899 3.145 2.613 6.633 4.82 10.008 7.14 3.527 2.419 7.211 4.626 10.66 7.16 7.696 5.66 13.074 13.024 15.715 22.282 1.55 5.41 2.207 10.941 2.313 16.547.035 1.797.007 3.605.007 5.59 1.356 0 2.383.02 3.418 0 4.555-.09 9.075.23 13.567 1.039 10.566 1.902 19.398 6.793 26.043 15.289 2.633 3.367 4.937 6.988 7.355 10.523 2.363 3.457 4.578 7.028 7.078 10.395 2.578 3.472 5.813 6.289 9.746 8.191 3.88 1.887 8.008 2.746 12.641 2.738M218.336 89.915c-5.598.14-10.816.636-15.926 1.843-27.242 6.414-46.734 22.312-58.312 47.828-.797 1.762-1.797 3.039-3.641 3.82-10.789 4.535-20.172 11.125-28.066 19.774-13.41 14.675-20.641 31.988-21.786 51.84-.05.921-.007 1.843-.007 2.757 7.05.211 13.82-2.41 18.703-7.062 3.453-3.285 6.058-7.211 8.636-11.172 2.766-4.25 5.45-8.555 8.477-12.613 5.91-7.903 13.75-13.059 23.356-15.461 5.71-1.426 11.53-1.93 17.414-1.77 1.004.028 2.011-.054 3.144-.09 0-2.773-.05-5.21.012-7.644.37-16.063 6.422-29.172 20.039-38.29 3.914-2.62 8-5.015 11.844-7.741 3.129-2.215 6.238-4.536 8.957-7.223 5.086-5.04 7.218-11.363 7.156-18.797m120.652 128.862c-.308-.125-.62-.257-.93-.37-5.253-1.887-9.53-5.13-12.917-9.509-2.028-2.62-3.871-5.394-5.73-8.14-2.595-3.836-4.997-7.805-7.708-11.563-6.273-8.664-14.75-14.004-25.23-16.113-5.164-1.035-10.383-1.445-15.645-1.285-.55.02-1.09.152-1.941.277 5.004 5.43 8.992 11.145 12.066 17.477.25.504.719 1.02 1.223 1.277 5.68 2.895 9.445 7.637 12.722 12.906 1.477 2.375 2.985 4.739 4.649 6.98 2.758 3.712 6.336 6.24 11.031 6.903 1.106.16 2.215.32 3.375.477v1.754c-9.133 1.453-11.836 3.218-16.894 10.976-1.434 2.2-2.79 4.45-4.262 6.61-2.692 3.953-5.988 7.257-10.25 9.578-.832.453-1.531 1.39-1.985 2.265-2.78 5.387-6.113 10.395-10.132 14.93-.434.488-.797 1.043-1.41 1.86 1.285.081 2.214.214 3.136.167 2.88-.125 5.758-.238 8.63-.496 13.085-1.168 23.734-6.742 31.405-17.574 2.02-2.855 3.899-5.805 5.82-8.726 1.294-1.977 2.524-3.989 3.837-5.946 4.304-6.422 9.488-11.836 17.14-14.715M219.605 338.695c.196-.328.434-.593.54-.914 1.832-5.597 5.343-9.992 9.957-13.52 2.843-2.171 5.867-4.109 8.832-6.113 3.543-2.398 7.21-4.632 10.66-7.156 7.43-5.441 12.488-12.605 15.05-21.5 1.684-5.847 2.055-11.855 2.231-17.887.027-.984-.21-1.968-.336-3.066-2.969 2.313-5.555 4.555-8.363 6.45-2.887 1.949-6.031 3.515-9.008 5.343-.691.422-1.285 1.14-1.703 1.86-1.54 2.675-3.32 5.183-5.75 7.085-2.676 2.102-5.535 3.961-8.309 5.938-2.347 1.664-4.785 3.223-7.015 5.039-3.02 2.473-4.75 5.777-5.43 9.613-.195 1.106-.25 2.242-.375 3.438h-2.063c-.09-.86-.175-1.543-.222-2.243-.274-4.023-1.887-7.46-4.828-10.171-1.727-1.594-3.657-2.977-5.59-4.313-2.293-1.594-4.723-3.004-7.024-4.59-3.8-2.613-6.937-5.828-9.195-9.902-.473-.844-1.34-1.621-2.207-2.059a70.5 70.5 0 0 1-15.156-10.257c-.48-.426-1.031-.778-1.88-1.426 0 1.726-.062 3.031.009 4.312.187 3.317.246 6.645.683 9.926 1.442 10.824 6.051 20.012 14.64 26.95 2.712 2.187 5.638 4.124 8.532 6.073 3.262 2.2 6.656 4.2 9.899 6.434 5.968 4.094 10.796 9.152 13.058 16.246.043.145.196.23.363.41m-49.32-166.8c-5.945-.344-11.34.007-16.68 1-9.507 1.765-17.703 6.007-23.867 13.554-3.082 3.774-5.695 7.938-8.488 11.953-2.285 3.293-4.402 6.723-6.805 9.938-3.41 4.582-7.75 8.027-13.172 9.996-.37.133-.718.316-1.035.46.051.274.043.4.086.423.223.133.446.265.692.355 5.812 2.04 10.34 5.793 13.918 10.692 2.27 3.101 4.289 6.379 6.449 9.55 2.41 3.536 4.695 7.168 7.32 10.543 5.367 6.895 12.348 11.493 20.809 13.793 6.031 1.641 12.191 2.188 18.418 2.082.656-.007 1.3-.097 1.976-.148-.097-.426-.082-.629-.18-.738-4.605-5.075-8.484-10.649-11.48-16.82-.285-.579-.851-1.137-1.426-1.426-4.898-2.528-8.406-6.47-11.367-10.989-1.578-2.41-3.11-4.855-4.687-7.261-3.524-5.387-8.371-8.559-14.934-8.797-.23-.012-.453-.188-.797-.34.078-.582.156-1.133.219-1.656 8.133-.903 11.473-2.922 16.02-9.621.831-1.231 1.585-2.516 2.398-3.747 1.258-1.894 2.473-3.808 3.82-5.644 2.41-3.277 5.332-6.016 8.992-7.867 1.008-.512 1.575-1.258 2.055-2.239a67.6 67.6 0 0 1 10.57-15.566c.344-.363.618-.77 1.176-1.48m50.313-47.36c.086.938.156 1.621.218 2.313.375 4.082 1.95 7.625 5.008 10.375 1.746 1.566 3.676 2.949 5.606 4.293 2.082 1.445 4.289 2.71 6.379 4.129 4.03 2.738 7.425 6.07 9.8 10.41.457.832 1.391 1.55 2.258 1.992 5.403 2.758 10.39 6.105 14.926 10.137.488.433 1.02.816 1.852 1.468.097-1.886.312-3.363.214-4.816-.222-3.395-.433-6.805-.93-10.172-1.534-10.543-6.148-19.465-14.546-26.16-3.41-2.719-7.133-5.043-10.719-7.531-3.8-2.63-7.734-5.102-11.402-7.91-4.172-3.192-7.196-7.352-8.992-12.34-.168-.48-.434-.922-.727-1.535-.258.578-.461.949-.602 1.347-1.632 4.758-4.449 8.735-8.293 11.899-2.765 2.265-5.714 4.324-8.671 6.332-3.536 2.41-7.239 4.59-10.747 7.035-6.496 4.547-11.73 10.207-14.851 17.613-3.461 8.23-4.32 16.86-3.824 25.68.007.09.257.172.468.293a71.4 71.4 0 0 1 16.973-11.692c.649-.32 1.242-.968 1.586-1.613 2.348-4.332 5.715-7.707 9.773-10.418 2.543-1.703 5.13-3.332 7.708-4.98 5.617-3.614 9.32-8.387 9.406-15.395 0-.23.195-.453.328-.746.516-.008 1.02-.008 1.8-.008m49.105 209.649c.281.808.485 1.765.93 2.578 4.926 8.922 10.629 17.277 18.047 24.355 10.734 10.238 23.441 15.512 38.367 15.45 8-.036 15.84-1.278 23.7-2.473 5.444-.832 10.894-1.63 16.433-1.266 1.601.106 3.187.371 4.507.531-2.054-2.234-4.128-4.582-6.296-6.812-2.118-2.188-4.743-3.695-7.72-4.2-2.905-.495-5.905-.788-8.839-.656-5.059.23-10.09.95-15.148 1.301-8.985.64-17.383-1.203-24.93-6.324-3.785-2.57-7.14-5.625-10.172-9.035-6.023-6.785-10.719-14.45-14.937-22.43-.422-.808-.895-1.598-1.329-2.36-4.25 3.821-8.273 7.442-12.613 11.34m104.024 37.59c-.145-3.669-.579-6.645-.301-9.56.617-6.687 1.539-13.35 2.426-20.003.964-7.281 1.675-14.547.949-21.926-1.16-11.738-5.883-21.82-13.672-30.555-6.527-7.32-14.352-13.007-22.766-17.93-1.136-.667-2.261-1.34-3.43-1.925-1.949-.98-2.402-.84-3.765.824-1.496 1.824-2.957 3.676-4.543 5.434-1.691 1.867-3.508 3.62-5.414 5.562 2.215 1.203 4.27 2.301 6.309 3.446 8.343 4.675 16.246 9.949 22.847 16.972 7.512 7.992 11.684 17.356 11.195 28.457-.253 5.75-.917 11.48-1.39 17.23-.442 5.345-.024 10.606 3.316 15.009 2.348 3.082 5.25 5.75 8.239 8.964m-91.543-256.747c.168-.113.363-.175.433-.308a60 60 0 0 0 1.125-2.074c3.645-6.891 7.656-13.543 12.59-19.614 4.281-5.261 9.117-9.886 15.043-13.304 7.414-4.282 15.469-5.254 23.82-4.61 4.965.383 9.914 1.04 14.875 1.32 4.325.25 8.551-.37 12.352-2.699 3.695-2.27 6.324-5.644 9.726-9.054-2.277.218-3.968.46-5.66.539-5.273.25-10.453-.567-15.656-1.258-7.008-.922-14.023-2.012-21.074-2.41-16.77-.946-30.973 4.933-42.692 16.937-7.027 7.195-12.507 15.48-17.265 24.285-.16.293-.223.645-.293.868 4.277 3.863 8.476 7.628 12.676 11.382M156.91 322.711c-.488.86-.894 1.613-1.332 2.348-2.426 4.148-4.71 8.382-7.316 12.414-4.137 6.414-8.93 12.293-14.973 17.07-5.164 4.082-10.902 6.867-17.434 7.973-5.226.886-10.445.574-15.671.078-3.907-.371-7.82-.77-11.739-1.043-9.46-.664-15.59 4.73-21.156 11.789 1.844-.203 3.375-.422 4.926-.52 5.45-.355 10.8.45 16.16 1.266 7.938 1.203 15.86 2.473 23.945 2.473 14.715.007 27.27-5.157 37.91-15.211 7.575-7.16 13.368-15.649 18.391-24.711.125-.23.23-.469.344-.707.613-1.266.39-2.153-.778-3.137-3.402-2.871-6.656-5.918-9.968-8.895a79 79 0 0 1-1.309-1.187M67.406 64.719c1.844 2.011 3.578 3.949 5.367 5.847 4.633 4.88 10.489 6.317 16.957 5.82 4.786-.363 9.56-.906 14.344-1.269 8.246-.629 16.211.34 23.555 4.52 5.066 2.886 9.363 6.687 13.2 11.047 5.866 6.671 10.464 14.183 14.608 21.996.446.836.922 1.648 1.473 2.632.637-.601 1.113-1.082 1.621-1.53 3.047-2.747 6.059-5.54 9.149-8.231 1.898-1.649 2.11-1.996.922-4.137-5.235-9.445-11.293-18.27-19.34-25.594-10.32-9.41-22.403-14.23-36.403-14.343-7.015-.055-13.925.851-20.836 1.914-6.207.945-12.402 2.132-18.734 1.859-1.984-.098-3.969-.355-5.883-.531M323.414 156.5c.531.555 1.082 1.105 1.594 1.68 2.687 2.988 5.406 5.945 8.035 8.976 1.598 1.832 2.02 2.028 4.184.84 8.3-4.57 16.086-9.84 22.875-16.512 11.277-11.074 17.148-24.418 17.035-40.328-.055-7.449-1.196-14.777-2.32-22.11-.93-6.042-1.915-12.077-1.376-18.226.125-1.406.329-2.804.516-4.312l-5.805 5.527c-5.27 5.008-6.539 11.297-5.945 18.235.516 6.085 1.172 12.171 1.367 18.265.281 9.09-2.836 17.117-8.46 24.211-4.563 5.75-10.102 10.418-16.204 14.379-4.996 3.215-10.152 6.148-15.496 9.375M65.086 371.355c2.117-1.937 4.2-3.789 6.219-5.695 3.836-3.613 5.785-8.176 5.66-13.36-.133-5.835-.7-11.667-1.242-17.488-1.055-11.207 1.523-21.304 8.773-30.085 5.297-6.414 11.746-11.454 18.754-15.805 4.074-2.524 8.293-4.828 12.578-7.309-.523-.558-1.055-1.105-1.566-1.683-2.746-3.047-5.52-6.067-8.223-9.16-1.48-1.692-1.977-1.93-3.96-.84-9.079 4.988-17.56 10.789-24.743 18.34-11.082 11.64-16.211 25.53-15.14 41.539.48 7.12 1.558 14.218 2.48 21.304.879 6.77 2.02 13.504.41 20.242m.191-304.902c.23 2.543.676 4.625.57 6.68-.25 4.61-.605 9.234-1.206 13.805-.965 7.261-2.286 14.476-2.543 21.828-.461 12.82 2.535 24.593 10.25 34.984 7.949 10.684 18.527 18.16 30.043 24.469 1.71.937 2.214.656 3.543-.84 2.957-3.332 5.972-6.61 8.957-9.914.316-.356.601-.754.91-1.153-3.559-2.011-7.016-3.878-10.383-5.902-7.61-4.55-14.68-9.777-20.473-16.59-7.636-8.976-10.398-19.367-9.187-30.972.508-4.864 1.02-9.727 1.285-14.602.285-5.191-.7-10.16-4.227-14.207-2.23-2.562-4.773-4.828-7.539-7.586M254.36 380.207c-3.582 2.402-6.945 4.848-10.507 6.98-3.684 2.208-7.727 3.633-11.915 4.645a53.2 53.2 0 0 1-12.457 1.469c-4.226 0-8.355-.516-12.449-1.516-4.18-1.027-8.219-2.46-11.886-4.695-3.528-2.145-6.883-4.563-10.633-7.059.222 2.719.34 5.156.629 7.563 1.047 8.629 4.742 15.844 11.722 21.176 2.356 1.796 4.899 3.355 7.344 5.03 2.668 1.817 5.395 3.563 7.98 5.493 2.766 2.066 4.91 4.715 6.407 7.848.273.578.566 1.152.949 1.914.328-.532.547-.797.68-1.106 1.648-4.012 4.464-7.078 7.914-9.578 2.258-1.637 4.66-3.082 6.972-4.648 2.664-1.817 5.403-3.563 7.938-5.555 5.101-4.023 8.422-9.277 10.035-15.574 1.027-4.067 1.594-8.18 1.277-12.387M184.707 58.305c10.25-8.957 21.61-13.555 34.73-13.582 13.227-.028 24.68 4.527 34.903 13.5.25-3.25-.043-5.977-.442-8.707-1.214-8.223-4.855-15.07-11.5-20.164-2.285-1.743-4.714-3.305-7.105-4.914-2.242-1.516-4.57-2.907-6.77-4.485-3.382-2.418-6.226-5.332-8.007-9.18-.274-.59-.61-1.16-1.055-1.992-2.008 5.555-5.8 9.215-10.309 12.227-3.27 2.18-6.601 4.262-9.879 6.43-10.808 7.175-14.75 17.656-14.566 30.867M9.77 218.77c2.488 1.699 4.933 2.949 6.828 4.773 2.242 2.164 4.113 4.75 5.925 7.293 2.332 3.266 4.372 6.75 6.692 10.027 5.57 7.848 13.41 11.746 22.82 12.73 2.117.223 4.254.231 6.988.372-9.132-10.3-13.668-21.695-13.703-34.852-.035-13.218 4.555-24.664 13.29-34.683-.65-.149-.907-.266-1.153-.266-12.129-.105-22.262 3.883-29.234 14.29-2.09 3.12-4.067 6.316-6.133 9.464-3.074 4.676-6.703 8.734-12.32 10.852m419.828.378c-7.953-4.722-9.38-6.148-14.41-14.148a323 323 0 0 0-4.122-6.387c-6.804-10.242-16.718-14.36-28.64-14.449-.524 0-1.055.223-1.824.399 8.859 10.101 13.324 21.562 13.277 34.703-.043 13.101-4.688 24.468-13.715 34.734 2.059-.125 3.414-.238 4.777-.293 11.606-.434 20.551-5.5 26.817-15.297 1.832-2.87 3.66-5.75 5.527-8.594 3.012-4.617 6.68-8.515 12.313-10.668M154.543 320.047c-.188-.375-.238-.543-.356-.676-5.093-6.281-9.28-13.101-12.367-20.578-.496-1.195-1.336-1.711-2.41-2.172-6.945-2.969-13.375-6.785-19.265-11.516-.47-.37-.985-.69-1.438-1.011-5.578 3.086-9.098 7.886-10.336 13.875-.887 4.277-.363 8.511.344 12.738.683 4.04 1.46 8.063 2.039 12.121.238 1.664.035 3.39.035 4.809 2.473.14 4.738.097 6.961.425 4.828.72 9.613 1.81 14.45 2.418 9.558 1.215 17.16-2 22.343-10.433m173.95 7.926c-.727-5.907 1.034-11.278 1.839-16.778.543-3.695.895-7.484.684-11.199-.426-7.183-4.457-12.242-10.383-15.945-.371.203-.61.3-.817.453-6.296 5.066-13.128 9.258-20.613 12.32-1.125.461-1.543 1.293-1.957 2.27a85.3 85.3 0 0 1-11.66 19.515c-.363.454-.629.985-.938 1.473 4.438 7.176 10.735 10.824 19.04 10.602 3.292-.086 6.59-.707 9.859-1.23 4.8-.755 9.523-2.321 14.945-1.481M118.628 154.008c.476-.328.777-.504 1.047-.727 6.066-4.926 12.691-8.93 19.914-11.922 1.25-.515 1.922-1.332 2.418-2.527 2.719-6.562 6.351-12.613 10.668-18.258.629-.824 1.273-1.636 1.945-2.508-3.57-5.675-8.281-9.425-14.996-10.468-3.703-.578-7.3-.11-10.934.422-5.918.87-11.675 2.953-18.035 2.082.762 4.82-.504 9.285-1.23 13.812-.57 3.527-1.285 7.05-1.465 10.606-.414 8.523 3.316 14.937 10.668 19.488m209.828-43.88c-5.184.712-9.898-.671-14.68-1.48-3.183-.539-6.379-1.183-9.586-1.308-8.578-.328-15.113 3.293-19.578 10.7.254.39.426.702.637.968 4.969 6.156 9.027 12.863 12.059 20.16.539 1.312 1.476 1.809 2.62 2.305a83.4 83.4 0 0 1 17.391 10.109c1.035.79 2.063 1.574 3.18 2.434 4.855-2.965 8.39-6.883 9.922-12.383 1.152-4.121.894-8.301.32-12.473-.851-6.273-3.058-12.367-2.285-19.031M182.309 379.075c-4.778.531-9.348 1.336-13.954 1.496-10.214.344-19.933-1.949-29.078-6.527-1.3-.656-2.328-.727-3.656-.09-1.879.902-3.883 1.55-5.848 2.285-.949.356-1.914.649-2.828.95 1.082 5.8 2.926 9.761 7.176 15.554 2.227 3.031 4.547 5.988 6.684 9.074 2.789 4.012 4.64 8.387 4.57 13.41 0 .118.195.239.45.524 4.917-5.805 11.8-7.39 18.757-8.879 3.488-.742 6.98-1.558 10.398-2.586 3.954-1.187 7.56-3.09 10.418-5.836-.812-3.34-1.78-6.433-2.285-9.594-.496-3.261-.558-6.593-.804-9.78m71.226 19.196c3.508 3.27 7.555 5.246 11.969 6.46 3.863 1.063 7.805 1.86 11.719 2.711 5.98 1.301 11.59 3.293 15.886 7.946.07.078.309.008.594.008-.02-6.165 2.762-11.243 6.305-16.008 1.773-2.383 3.73-4.64 5.324-7.14a101 101 0 0 0 5.387-9.552c.824-1.656 1.09-3.593 1.613-5.394-2.957-1.09-5.633-1.895-8.148-3.067-1.739-.812-3.075-.812-4.848.047-12.758 6.2-26.117 7.903-40.027 4.942-.82-.176-1.664-.274-2.762-.442.273 6.828-.488 13.281-3.012 19.489m40.05-375.766c-2.054 1.543-3.89 3.144-5.933 4.402-3.234 1.996-6.91 2.836-10.57 3.715-4.75 1.14-9.516 2.203-14.184 3.606-3.507 1.054-6.671 2.93-9.363 5.632 2.656 6.192 3.18 12.668 3.082 19.395 1.125-.195 1.887-.305 2.64-.473 7.68-1.683 15.388-1.86 23.15-.547A62.5 62.5 0 0 1 300 63.973c.664.328 1.578.78 2.16.566 3.34-1.184 6.63-2.55 9.996-3.879-.097-.61-.168-1.215-.3-1.808-1.208-5.118-3.836-9.524-6.91-13.696-2.227-3.02-4.528-5.996-6.68-9.062-2.13-3.028-3.668-6.344-4.262-10.035-.188-1.16-.277-2.34-.418-3.555m-166.6 38.254c2.699.992 5.374 1.808 7.89 2.969 1.816.832 3.262.824 5.094-.07 12.777-6.196 26.144-7.825 40.054-4.848.735.16 1.489.203 2.47.328-.15-6.778.62-13.227 3.128-19.348-2.879-2.695-6.016-4.605-9.559-5.644-4.597-1.344-9.265-2.461-13.945-3.516-6.05-1.363-11.781-3.29-16.105-8.07-.07-.082-.309-.008-.637-.008.203 5.687-2.187 10.46-5.379 14.926-1.266 1.78-2.676 3.453-3.914 5.253-2.129 3.09-4.281 6.176-6.203 9.391-1.566 2.621-2.488 5.535-2.895 8.637m289.23 84.57c-.32-.266-.434-.453-.559-.46-5.875-.063-10.773-2.641-15.344-6.016-2.464-1.817-4.875-3.696-7.335-5.512-3.313-2.445-6.805-4.606-10.754-5.883-1.446-.469-2.953-.742-4.38-1.09-1.105 2.969-1.948 5.637-3.09 8.16-.753 1.657-.726 2.961.079 4.625 5.707 11.711 7.645 24.036 5.555 36.942-.301 1.844-.664 3.676-1.028 5.68 6.813.21 13.325.644 19.418 3.296 3.004-3.254 4.926-6.867 6.098-10.828 1.063-3.586 1.781-7.281 2.7-10.922.753-2.96 1.445-5.937 2.41-8.832 1.206-3.59 3.34-6.656 6.23-9.16m-393.363-.496c.398.61.488.86.668 1.016 3.418 3.101 5.402 7.054 6.59 11.414.886 3.277 1.558 6.617 2.277 9.937 1.125 5.227 2.543 10.348 5.605 14.832.727 1.055 1.578 2.02 2.43 3.09 6.254-2.86 12.793-3.02 19.426-3.445-3.668-15.778-1.868-30.61 5.468-44.613-1.355-3.598-2.668-7.07-4.023-10.668-.938.187-1.79.328-2.621.539-3.508.886-6.734 2.437-9.684 4.492-3.226 2.242-6.343 4.633-9.496 6.965-4.847 3.578-9.941 6.539-16.64 6.441M416.117 292.91c-.168-.293-.25-.558-.426-.719-3.421-3.09-5.441-7.007-6.601-11.402a186 186 0 0 1-2.035-8.664c-1.137-5.305-2.383-10.574-5.309-15.254-.86-1.371-1.894-2.64-2.887-4.004-6.379 2.79-12.882 3.2-19.543 3.305.16.816.247 1.32.352 1.824 1.676 7.762 2.039 15.547.727 23.414a64.5 64.5 0 0 1-5.73 17.887c-.364.734-.798 1.746-.567 2.418 1.125 3.277 2.472 6.484 3.793 9.86.84-.15 1.691-.255 2.523-.477 3.941-1.012 7.504-2.852 10.8-5.192 3.134-2.222 6.173-4.582 9.274-6.855 3.047-2.235 6.239-4.219 9.942-5.14 1.832-.45 3.738-.665 5.687-1M61.363 311.54c1.028-2.755 1.836-5.34 2.95-7.786.824-1.8.851-3.242-.051-5.094-5.469-11.117-7.336-22.875-5.688-35.172.317-2.383.75-4.746 1.168-7.379-6.812.098-13.27-.629-19.375-3.129-3.62 3.946-5.625 8.473-6.875 13.336-1 3.887-1.762 7.84-2.648 11.754-1.25 5.465-3.297 10.508-7.555 14.399-.09.078-.039.308-.055.476 7.868 1.356 9.88 2.118 15.157 5.89 1.57 1.118 3.05 2.356 4.617 3.466 2.781 1.957 5.527 3.996 8.433 5.758 2.985 1.808 6.22 3.128 9.922 3.48m124.797 66.062c18.676 19.023 51.028 16.992 66.727-.063-6.864-2.371-13.172-5.695-18.86-10.152-5.714-4.48-10.39-9.91-14.492-16.121-8.18 12.843-19.297 21.445-33.375 26.336m33.418-290.797c8.195-12.883 19.34-21.52 33.477-26.438-18.868-18.613-50.063-17.246-66.84.028 6.812 2.464 13.144 5.68 18.808 10.144 5.676 4.473 10.434 9.781 14.555 16.266m158.594 165.629c18.418-18.207 17.523-49.957-.043-66.774-4.863 14.149-13.61 25.207-26.313 33.375 12.856 8.219 21.477 19.305 26.356 33.399M60.93 185.672c-18.774 18.558-16.973 50.789.113 66.621 2.43-6.832 5.7-13.133 10.145-18.809 4.484-5.714 9.921-10.382 16.027-14.449-15.016-11.207-18.766-15.972-26.285-33.363m18.383 133.32c-1.278 4.11-1.836 8.281-1.641 12.48.195 4.27.816 8.524 1.187 12.786.47 5.414.868 10.824-1.21 16.05-.083.196.05.481.058.532 2.535-.461 4.988-1.203 7.48-1.293 3.56-.125 7.149.082 10.7.418 5.316.504 10.605 1.125 15.957.77 2.691-.176 5.351-.548 8.168-1.72-6.778-8-11.172-17.007-13.336-26.488-5.074-1.949-9.875-3.402-14.297-5.605-4.5-2.215-8.621-5.184-13.067-7.93m239.984 39.899c2.293 1.144 4.8 1.668 8.015 1.851 5.442.313 10.817-.219 16.204-.847 4.074-.47 8.175-.915 12.27-.23 1.921.315 3.808.866 6.007 1.37-2.27-5.508-2.117-10.957-1.516-16.476.61-5.645 1.47-11.278 1.09-16.973-.195-2.961-.586-5.883-1.754-9.027-8 6.793-17.02 11.18-27.047 13.48-2.257 10.102-6.714 18.996-13.27 26.852M119.992 79.027c-2.676-1.207-5.183-1.465-7.68-1.703-5.519-.531-10.984.168-16.453.797-6.015.692-12.011 1.152-17.851-1.117-.086-.035-.254.152-.52.32 1.903 4.156 1.93 8.63 1.649 13.086-.32 5.05-.95 10.082-1.356 15.13-.375 4.624.266 9.144 1.68 14.015 8.082-6.926 17.11-11.27 27.121-13.598 2.293-10.039 6.625-18.906 13.41-26.93m241.906-2.332c-4.863 1.95-9.363 2.25-13.918 1.871-3.48-.293-6.945-.726-10.425-1.066-4.793-.457-9.586-.617-14.352.32-1.258.25-2.492.621-4.191 1.055 6.972 8.125 11.297 17.168 13.476 26.586 5.117 1.965 9.903 3.418 14.325 5.625 4.492 2.242 8.609 5.21 12.996 7.922.175-.594.425-1.32.609-2.067 1.64-6.66.992-13.351.215-20.046-.774-6.59-1.613-13.211 1.265-20.2M217.258 350.29c-16.719-.672-31.797-5.562-45.485-14.8-3.066 11.214 1.872 30.8 12.598 40.226 12.547-3.34 26.39-13.676 32.887-25.426m-113.903-83.05c-9.515-14.212-14.503-29.31-15.023-46.184-12.785 8.273-21.14 19.25-25.64 33.433 11.472 10.328 24.699 14.504 40.663 12.75m80.82-204.903c-11.195 10.469-15.538 30.644-12.234 40.059 13.66-9.188 28.723-14.051 45.172-14.668-4.054-9.817-21.054-22.875-32.937-25.391M350.86 221.188c-.644 16.921-5.59 31.964-14.953 45.917 1.418.211 2.34.422 3.27.485 13.312.824 25.168-2.871 35.426-11.488 1.886-1.586 1.898-1.614 1.074-3.954-4.332-12.347-11.926-22.207-22.672-29.648-.567-.39-1.16-.719-2.145-1.312m.047-4.43c.707-.399 1.086-.578 1.434-.805 11.27-7.55 19.047-17.773 23.547-30.558.55-1.56.02-2.399-1.09-3.329-10.55-8.859-22.688-12.687-36.41-11.527-.719.063-1.41.32-2.39.55 4.64 6.946 8.183 14.024 10.671 21.599 2.527 7.671 3.777 15.566 4.238 24.07m-248.144-45.696c-15.38-2.082-28.64 2.145-39.946 12.387 3.188 12.863 17.746 31.473 25.594 32.89.133-8.015 1.578-15.804 4.012-23.413 2.457-7.68 6.078-14.82 10.34-21.863m164.51 164.497c-13.675 9.265-28.824 14.066-45.62 14.765 8.288 12.758 19.257 21.113 33.183 25.516 11.332-10.668 15.566-30.192 12.437-40.281m-45.64-247.825c16.965.586 32.008 5.536 45.703 14.723 3.156-11.863-2.035-30.723-12.606-40.254-13.91 4.445-24.867 12.8-33.097 25.531m95.281-7.921c-10.012 3.234-25.187 19.261-29.07 30.593.383-.242.683-.402.949-.605 4.148-3.27 8.887-4.66 14.14-4.676 4.676-.02 9.176 1.027 13.731 1.824 2.836.496 5.688.914 8.55 1.145 1.825.14 3.641-.242 5.192-1.668-2.226-10.02-6.699-18.844-13.492-26.614m-29.336 247.816c.285.601.418 1 .64 1.328 2.93 4.45 5.731 8.984 8.848 13.29 3.352 4.616 7.391 8.62 12.086 11.905 2.356 1.649 4.793 3.145 7.715 4.121 6.813-7.804 11.36-16.648 13.528-26.703-1.895-1.613-3.985-1.754-6.086-1.636-1.735.097-3.473.37-5.192.664-3.96.656-7.89 1.496-11.87 2.027-6.829.914-13.235-.14-18.755-4.652-.168-.133-.426-.157-.914-.344M150.824 109.89c-3.703-7.567-8.25-14.36-14.062-20.262-3.02-3.063-6.324-5.774-10.098-7.875-1.355-.754-2.773-1.371-4.316-2.125-1.008 1.25-1.895 2.312-2.746 3.402-4.915 6.387-8.317 13.508-10.364 21.297-.62 2.356-.336 2.95 2.145 3.402 1.691.31 3.5.434 5.191.184 5.094-.734 10.145-1.816 15.239-2.516 6.519-.902 12.73-.035 18.16 4.075.246.195.566.285.851.418m.434 218.023c-4.324 3.203-9.09 4.996-14.414 4.941-2.95-.027-5.918-.382-8.844-.796-4.223-.602-8.414-1.489-12.64-2.075-2.243-.308-4.52-.148-6.575 1.614 2.188 10.082 6.7 18.933 13.645 26.78 13.933-6.183 21.765-17.929 28.828-30.464m207.574-206.187c-7.812-6.82-16.664-11.395-26.754-13.536-2.027 2.782-1.77 5.676-1.348 8.532.774 5.18 1.81 10.32 2.52 15.5.86 6.3-.348 12.175-4.29 17.328-.222.293-.37.64-.698 1.222 3.824-1.558 11.242-6.414 16.058-10.39 3.934-3.242 7.532-6.793 10.446-10.992 1.64-2.375 3.171-4.805 4.066-7.664m-.023 194.605c-3.766-10.293-20.465-26.09-30.434-28.844.215.364.355.664.55.922 2.544 3.258 3.864 6.961 4.384 11.055.578 4.512-.317 8.867-1.016 13.262-.613 3.87-1.32 7.734-1.773 11.632-.223 1.895.097 3.829 1.675 5.465 10.008-2.16 18.797-6.715 26.614-13.492M107.03 329.844c1.32-1.531 1.692-3.082 1.578-4.66-.203-2.782-.46-5.575-.941-8.309-.883-5.078-2.043-10.09-1.91-15.309.12-4.695 1.39-8.949 4.152-12.742.32-.433.578-.902.871-1.355-6.05 2.926-11.527 6.476-16.55 10.703-4.305 3.625-8.204 7.629-11.118 12.473-1.062 1.773-1.933 3.66-2.914 5.539 7.953 6.918 16.75 11.46 26.832 13.66m-.035-221.672c-10.098 2.277-18.941 6.734-26.566 13.492 1.586 5.262 6.156 11.438 12.675 17.215 5.653 5.004 15.043 11.16 17.657 11.57-4.403-6.496-5.422-9.851-4.907-17.719.192-3.039.918-6.035 1.344-9.054.508-3.625 1.012-7.246 1.383-10.887.16-1.586-.293-3.11-1.586-4.617m61.465 233.71c-7.496 11.88-16.063 22.645-28.613 30.067 13.59 6.574 27.195 8.117 41.832 4.633-8.657-10.168-13.059-21.55-13.22-34.7m88.988 34.677c14.672 3.55 28.297 1.937 41.887-4.618-12.543-7.363-21.031-18.09-28.543-29.925-.426 12.988-4.555 24.449-13.344 34.543M139.836 66.089c12.625 7.345 21.101 18.208 28.66 30.079.078-6.441 1.195-12.555 3.383-18.48 2.18-5.918 5.484-11.18 9.8-16.258-14.726-3.426-28.331-1.922-41.843 4.66M66.66 139.25c-6.52 13.605-8.14 27.195-4.605 41.86 10.16-8.782 21.617-12.97 34.648-13.255-11.828-7.484-22.601-15.937-30.043-28.605m275.82 28.598c13.102.23 24.532 4.57 34.684 13.254 3.32-14.622 1.973-28.22-4.68-41.801-7.457 12.61-18.18 21.105-30.004 28.547m-71.636-71.93c3.847-5.793 7.726-11.445 12.324-16.566a69.4 69.4 0 0 1 15.957-13.2c-12.863-7.3-32.727-8.132-41.293-4.277 4.11 4.758 7.309 10.027 9.523 15.883 2.18 5.82 2.977 11.918 3.489 18.16m71.261 174.047c4.184 2.914 8.082 5.36 11.653 8.203 3.605 2.871 7.113 5.945 10.258 9.3 3.109 3.317 5.722 7.09 8.699 10.844 6.406-13.25 7.777-26.816 4.414-41.406-10.192 8.781-21.625 12.98-35.024 13.059M62.027 256.898c-3.453 14.707-1.93 28.286 4.555 41.657.566-.754.95-1.207 1.258-1.703 2.87-4.633 6.332-8.77 10.265-12.528 5.008-4.793 10.543-8.875 16.418-12.515.743-.461 1.454-.985 2.18-1.48-13.101-.47-24.488-4.661-34.676-13.43m132.434-101.214c16.93-6.192 33.336-6.168 50.187-.036-.664-1.02-.937-1.675-1.41-2.109-2.441-2.223-4.828-4.543-7.457-6.527-2.781-2.102-5.863-3.801-8.726-5.805-2.899-2.027-5.309-4.535-6.832-7.805-.149-.328-.461-.574-.805-1-1.95 4.578-5.305 7.575-9.16 10.125-3.278 2.16-6.582 4.297-9.781 6.575-2.293 1.628-4.227 3.648-6.016 6.582m89.125 38.57c2.371 8.25 3.984 16.383 3.976 24.851-.007 8.407-1.648 16.489-4.199 24.47 3.04-1.641 5.207-4.012 7.059-6.673 1.95-2.789 3.758-5.68 5.61-8.539 2.464-3.8 5.44-7.05 9.62-9.02.106-.05.125-.28.246-.609-4.472-1.941-7.546-5.441-10.113-9.46-1.223-1.915-2.348-3.899-3.687-5.735a98 98 0 0 0-5.403-6.73c-.87-.993-2.066-1.711-3.11-2.555m-127.547.277-.441-.347c-.868.699-1.86 1.285-2.586 2.109-2.012 2.293-4.016 4.598-5.813 7.05-1.851 2.536-3.402 5.29-5.191 7.876-2.117 3.066-4.738 5.594-8.14 7.222-.259.125-.462.371-.88.735 5.157 2.18 8.25 6.148 10.985 10.472 1.312 2.063 2.48 4.243 3.996 6.149 2.011 2.504 4.289 4.8 6.496 7.14.344.364.93.497 1.707.883-6.121-16.672-6.094-32.98-.133-49.289m88.484 88.508c-.156-.156-.308-.324-.468-.484-16.38 6.015-32.778 5.968-49.512-.196 1.602 2.836 3.508 4.766 5.676 6.36 2.668 1.969 5.441 3.8 8.242 5.582 4.535 2.887 8.777 6.043 11.098 11.676 1.828-4.164 4.464-7.133 7.84-9.426 2.023-1.371 4.12-2.64 6.132-4.031 2.223-1.54 4.492-3.04 6.547-4.786 1.629-1.39 2.977-3.117 4.445-4.695m128.235-69.32c2.969.027 5.3 2.39 5.265 5.36-.035 2.968-2.394 5.226-5.398 5.198-2.977-.035-5.34-2.418-5.285-5.332.043-2.922 2.469-5.254 5.418-5.226m-3.133 5.289c0 1.726 1.453 3.187 3.125 3.144 1.605-.043 2.914-1.37 2.969-3.011.062-1.79-1.242-3.207-2.969-3.25-1.7-.036-3.125 1.379-3.125 3.117M66.582 224.27c-3.066.042-5.332-2.125-5.387-5.157-.043-3.039 2.16-5.351 5.164-5.402 3.012-.055 5.36 2.195 5.414 5.18.051 3.015-2.187 5.336-5.191 5.379m-3.207-5.208c.027 1.727 1.523 3.16 3.215 3.09 1.57-.07 2.95-1.488 2.996-3.066.043-1.691-1.41-3.188-3.102-3.195-1.726-.012-3.136 1.433-3.109 3.172m28.09 131.981c-3.012-.016-5.2-2.258-5.18-5.324.016-3.055 2.258-5.281 5.27-5.246 2.941.035 5.297 2.43 5.28 5.343-.007 2.907-2.417 5.247-5.37 5.227m.074-8.371c-1.754-.027-3.129 1.363-3.121 3.125.02 1.738 1.465 3.164 3.164 3.121 1.613-.047 2.934-1.39 2.984-3.031.063-1.782-1.273-3.2-3.027-3.215m254.848-.832c3.02.023 5.183 2.258 5.156 5.324-.027 3.09-2.18 5.191-5.29 5.164-3.01-.027-5.273-2.312-5.233-5.297.035-2.941 2.382-5.21 5.367-5.191m3.047 5.351c.043-1.73-1.391-3.226-3.09-3.234-1.649-.012-3.207 1.55-3.184 3.188.027 1.558 1.438 3.003 3.004 3.082 1.719.082 3.227-1.309 3.27-3.036M98.074 90.844c.028 3.066-2.144 5.332-5.164 5.379-2.984.043-5.332-2.243-5.367-5.211-.035-3.032 2.18-5.305 5.207-5.352 3.074-.043 5.3 2.117 5.324 5.184m-5.312-3.02c-1.703.035-3.137 1.547-3.067 3.223.07 1.57 1.48 2.933 3.075 2.96 1.726.024 3.187-1.39 3.18-3.1-.009-1.704-1.481-3.118-3.188-3.083m249.691 4.313c.035-3.032 2.32-5.246 5.332-5.172 2.996.07 5.219 2.398 5.156 5.41-.05 2.977-2.418 5.246-5.386 5.184-3.004-.063-5.137-2.329-5.102-5.422m5.219-2.95c-1.766-.007-3.129 1.372-3.094 3.137.027 1.574 1.418 3.012 2.961 3.074 1.602.063 3.25-1.48 3.285-3.074.035-1.64-1.469-3.136-3.152-3.136m0 0"/>
    </clipPath>
    <clipPath id="a">
      <path d="M0 0h439v438H0z"/>
    </clipPath>
    <linearGradient x1="246.64" gradientTransform="translate(1.06 .428)scale(.8859)" y1="493.58" x2="246.64" gradientUnits="userSpaceOnUse" y2=".02" id="d">
      <stop stop-color="#fbb13d" offset="0"/>
      <stop stop-color="#fbb13d" offset=".008"/>
      <stop stop-color="#fbb13e" offset=".016"/>
      <stop stop-color="#fbb23f" offset=".023"/>
      <stop stop-color="#fbb240" offset=".031"/>
      <stop stop-color="#fbb241" offset=".039"/>
      <stop stop-color="#fbb342" offset=".047"/>
      <stop stop-color="#fbb342" offset=".055"/>
      <stop stop-color="#fbb343" offset=".063"/>
      <stop stop-color="#fbb444" offset=".07"/>
      <stop stop-color="#fbb445" offset=".078"/>
      <stop stop-color="#fbb446" offset=".086"/>
      <stop stop-color="#fbb547" offset=".094"/>
      <stop stop-color="#fbb548" offset=".102"/>
      <stop stop-color="#fbb548" offset=".109"/>
      <stop stop-color="#fbb649" offset=".117"/>
      <stop stop-color="#fbb64a" offset=".125"/>
      <stop stop-color="#fbb64b" offset=".133"/>
      <stop stop-color="#fbb74c" offset=".141"/>
      <stop stop-color="#fbb74d" offset=".148"/>
      <stop stop-color="#fbb74e" offset=".156"/>
      <stop stop-color="#fbb84e" offset=".164"/>
      <stop stop-color="#fbb84f" offset=".172"/>
      <stop stop-color="#fbb850" offset=".18"/>
      <stop stop-color="#fbb951" offset=".188"/>
      <stop stop-color="#fbb952" offset=".195"/>
      <stop stop-color="#fbb953" offset=".203"/>
      <stop stop-color="#fbba54" offset=".211"/>
      <stop stop-color="#fbba54" offset=".219"/>
      <stop stop-color="#fbba55" offset=".227"/>
      <stop stop-color="#fbbb56" offset=".234"/>
      <stop stop-color="#fbbb57" offset=".242"/>
      <stop stop-color="#fbbb58" offset=".25"/>
      <stop stop-color="#fbbc59" offset=".258"/>
      <stop stop-color="#fbbc5a" offset=".266"/>
      <stop stop-color="#fbbc5a" offset=".273"/>
      <stop stop-color="#fbbd5b" offset=".281"/>
      <stop stop-color="#fbbd5c" offset=".289"/>
      <stop stop-color="#fbbd5d" offset=".297"/>
      <stop stop-color="#fbbe5e" offset=".305"/>
      <stop stop-color="#fbbe5f" offset=".313"/>
      <stop stop-color="#fbbe60" offset=".32"/>
      <stop stop-color="#fbbf60" offset=".328"/>
      <stop stop-color="#fbbf61" offset=".336"/>
      <stop stop-color="#fbbf62" offset=".344"/>
      <stop stop-color="#fbc063" offset=".352"/>
      <stop stop-color="#fbc064" offset=".359"/>
      <stop stop-color="#fbc065" offset=".367"/>
      <stop stop-color="#fbc166" offset=".375"/>
      <stop stop-color="#fbc166" offset=".383"/>
      <stop stop-color="#fbc167" offset=".391"/>
      <stop stop-color="#fbc268" offset=".398"/>
      <stop stop-color="#fbc269" offset=".406"/>
      <stop stop-color="#fbc26a" offset=".414"/>
      <stop stop-color="#fbc36b" offset=".422"/>
      <stop stop-color="#fbc36c" offset=".43"/>
      <stop stop-color="#fbc36c" offset=".438"/>
      <stop stop-color="#fbc46d" offset=".445"/>
      <stop stop-color="#fbc46e" offset=".453"/>
      <stop stop-color="#fbc46f" offset=".461"/>
      <stop stop-color="#fbc570" offset=".469"/>
      <stop stop-color="#fbc571" offset=".477"/>
      <stop stop-color="#fbc572" offset=".484"/>
      <stop stop-color="#fbc672" offset=".492"/>
      <stop stop-color="#fbc673" offset=".5"/>
      <stop stop-color="#fbc674" offset=".508"/>
      <stop stop-color="#fbc775" offset=".516"/>
      <stop stop-color="#fbc776" offset=".523"/>
      <stop stop-color="#fbc777" offset=".531"/>
      <stop stop-color="#fbc878" offset=".539"/>
      <stop stop-color="#fbc878" offset=".547"/>
      <stop stop-color="#fbc879" offset=".555"/>
      <stop stop-color="#fbc97a" offset=".563"/>
      <stop stop-color="#fbc97b" offset=".57"/>
      <stop stop-color="#fbc97c" offset=".578"/>
      <stop stop-color="#fbca7d" offset=".586"/>
      <stop stop-color="#fbca7e" offset=".594"/>
      <stop stop-color="#fbca7e" offset=".602"/>
      <stop stop-color="#fbcb7f" offset=".609"/>
      <stop stop-color="#fbcb80" offset=".617"/>
      <stop stop-color="#fbcb81" offset=".625"/>
      <stop stop-color="#fbcc82" offset=".633"/>
      <stop stop-color="#fbcc83" offset=".641"/>
      <stop stop-color="#fbcc84" offset=".648"/>
      <stop stop-color="#fbcd84" offset=".656"/>
      <stop stop-color="#fbcd85" offset=".664"/>
      <stop stop-color="#fbcd86" offset=".672"/>
      <stop stop-color="#fbce87" offset=".68"/>
      <stop stop-color="#fbce88" offset=".688"/>
      <stop stop-color="#fbce89" offset=".695"/>
      <stop stop-color="#fbcf8a" offset=".703"/>
      <stop stop-color="#fbcf8a" offset=".711"/>
      <stop stop-color="#fbcf8b" offset=".719"/>
      <stop stop-color="#fbd08c" offset=".727"/>
      <stop stop-color="#fbd08d" offset=".734"/>
      <stop stop-color="#fbd08e" offset=".742"/>
      <stop stop-color="#fbd18f" offset=".75"/>
      <stop stop-color="#fbd190" offset=".758"/>
      <stop stop-color="#fbd190" offset=".766"/>
      <stop stop-color="#fbd291" offset=".773"/>
      <stop stop-color="#fbd292" offset=".781"/>
      <stop stop-color="#fbd293" offset=".789"/>
      <stop stop-color="#fbd394" offset=".797"/>
      <stop stop-color="#fbd395" offset=".805"/>
      <stop stop-color="#fbd396" offset=".813"/>
      <stop stop-color="#fbd496" offset=".82"/>
      <stop stop-color="#fbd497" offset=".828"/>
      <stop stop-color="#fbd497" offset=".844"/>
      <stop stop-color="#fbd497" offset=".875"/>
      <stop stop-color="#fbd497" offset="1"/>
    </linearGradient>
  </defs>
  <g clip-path="url(#a)" transform="translate(64 64)">
    <g clip-path="url(#b)">
      <g clip-path="url(#c)">
        <path fill="url(#d)" d="M1.059.445v437.25h437V.445Zm0 0"/>
      </g>
    </g>
  </g>
</svg>
